<?xml version="1.0" encoding="UTF-8"?>
<svg xmlns="http://www.w3.org/2000/svg" xmlns:xlink="http://www.w3.org/1999/xlink" width="46px" height="32px" viewBox="0 0 46 32" version="1.1">
<g id="surface1">
<path style=" stroke:none;fill-rule:nonzero;fill:rgb(5.098039%,61.56863%,85.490197%);fill-opacity:1;" d="M 19.164062 3.488281 C 20.640625 1.953125 22.691406 1 24.960938 1 C 27.980469 1 30.609375 2.683594 32.015625 5.179688 C 33.234375 4.636719 34.585938 4.328125 36 4.328125 C 41.445312 4.328125 45.855469 8.78125 45.855469 14.273438 C 45.855469 19.769531 41.441406 24.21875 36 24.21875 C 35.335938 24.21875 34.683594 24.15625 34.058594 24.023438 C 32.824219 26.226562 30.46875 27.714844 27.769531 27.714844 C 26.640625 27.714844 25.570312 27.453125 24.621094 26.988281 C 23.371094 29.933594 20.449219 32 17.054688 32 C 13.660156 32 10.5 29.761719 9.339844 26.621094 C 8.835938 26.726562 8.308594 26.785156 7.769531 26.785156 C 3.554688 26.785156 0.140625 23.335938 0.140625 19.074219 C 0.140625 16.21875 1.675781 13.730469 3.953125 12.394531 C 3.484375 11.316406 3.226562 10.121094 3.226562 8.871094 C 3.226562 3.96875 7.199219 0 12.105469 0 C 14.984375 0 17.546875 1.371094 19.164062 3.488281 Z M 19.164062 3.488281 "/>
<path style=" stroke:none;fill-rule:nonzero;fill:rgb(100%,100%,100%);fill-opacity:1;" d="M 6.765625 16.59375 C 6.734375 16.671875 6.773438 16.683594 6.785156 16.699219 C 6.871094 16.761719 6.960938 16.804688 7.046875 16.859375 C 7.511719 17.105469 7.949219 17.179688 8.410156 17.179688 C 9.351562 17.179688 9.929688 16.679688 9.929688 15.878906 L 9.929688 15.863281 C 9.929688 15.125 9.269531 14.855469 8.65625 14.660156 L 8.574219 14.636719 C 8.109375 14.484375 7.710938 14.355469 7.710938 14.046875 L 7.710938 14.03125 C 7.710938 13.769531 7.945312 13.574219 8.308594 13.574219 C 8.714844 13.574219 9.195312 13.710938 9.5 13.878906 C 9.5 13.878906 9.589844 13.941406 9.625 13.851562 C 9.644531 13.800781 9.800781 13.378906 9.816406 13.335938 C 9.835938 13.285156 9.800781 13.25 9.769531 13.230469 C 9.414062 13.015625 8.929688 12.871094 8.425781 12.871094 L 8.328125 12.871094 C 7.46875 12.871094 6.871094 13.390625 6.871094 14.128906 L 6.871094 14.144531 C 6.871094 14.929688 7.53125 15.179688 8.148438 15.359375 L 8.25 15.390625 C 8.699219 15.53125 9.089844 15.648438 9.089844 15.964844 L 9.089844 15.980469 C 9.089844 16.269531 8.835938 16.484375 8.429688 16.484375 C 8.269531 16.484375 7.765625 16.484375 7.21875 16.136719 C 7.15625 16.09375 7.113281 16.070312 7.066406 16.039062 C 7.039062 16.023438 6.96875 15.996094 6.941406 16.078125 L 6.753906 16.59375 Z M 6.765625 16.59375 "/>
<path style=" stroke:none;fill-rule:nonzero;fill:rgb(100%,100%,100%);fill-opacity:1;" d="M 20.488281 16.59375 C 20.460938 16.671875 20.5 16.683594 20.511719 16.699219 C 20.59375 16.761719 20.683594 16.804688 20.769531 16.859375 C 21.234375 17.105469 21.675781 17.179688 22.136719 17.179688 C 23.074219 17.179688 23.65625 16.679688 23.65625 15.878906 L 23.65625 15.863281 C 23.65625 15.125 23 14.855469 22.378906 14.660156 L 22.300781 14.636719 C 21.835938 14.484375 21.433594 14.355469 21.433594 14.046875 L 21.433594 14.03125 C 21.433594 13.769531 21.671875 13.574219 22.035156 13.574219 C 22.441406 13.574219 22.921875 13.710938 23.226562 13.878906 C 23.226562 13.878906 23.316406 13.941406 23.351562 13.851562 C 23.371094 13.800781 23.523438 13.378906 23.539062 13.335938 C 23.558594 13.285156 23.523438 13.25 23.496094 13.230469 C 23.140625 13.015625 22.65625 12.871094 22.148438 12.871094 L 22.054688 12.871094 C 21.195312 12.871094 20.59375 13.390625 20.59375 14.128906 L 20.59375 14.144531 C 20.59375 14.929688 21.253906 15.179688 21.875 15.359375 L 21.976562 15.390625 C 22.425781 15.53125 22.816406 15.648438 22.816406 15.964844 L 22.816406 15.980469 C 22.816406 16.269531 22.558594 16.484375 22.15625 16.484375 C 21.996094 16.484375 21.488281 16.484375 20.945312 16.136719 C 20.878906 16.09375 20.839844 16.070312 20.789062 16.039062 C 20.773438 16.03125 20.695312 16 20.664062 16.078125 L 20.480469 16.59375 Z M 20.488281 16.59375 "/>
<path style=" stroke:none;fill-rule:nonzero;fill:rgb(100%,100%,100%);fill-opacity:1;" d="M 30.644531 14.179688 C 30.570312 13.921875 30.449219 13.691406 30.289062 13.5 C 30.128906 13.308594 29.929688 13.15625 29.691406 13.046875 C 29.449219 12.933594 29.171875 12.875 28.851562 12.875 C 28.53125 12.875 28.25 12.929688 28.011719 13.046875 C 27.769531 13.15625 27.570312 13.308594 27.410156 13.5 C 27.25 13.691406 27.128906 13.921875 27.054688 14.179688 C 26.980469 14.441406 26.941406 14.71875 26.941406 15.019531 C 26.941406 15.320312 26.980469 15.605469 27.054688 15.859375 C 27.128906 16.121094 27.25 16.351562 27.410156 16.539062 C 27.570312 16.730469 27.773438 16.886719 28.011719 16.996094 C 28.25 17.105469 28.53125 17.160156 28.851562 17.160156 C 29.171875 17.160156 29.449219 17.105469 29.691406 16.996094 C 29.929688 16.886719 30.128906 16.734375 30.289062 16.539062 C 30.449219 16.351562 30.570312 16.121094 30.644531 15.859375 C 30.71875 15.601562 30.761719 15.320312 30.761719 15.019531 C 30.761719 14.71875 30.71875 14.433594 30.644531 14.179688 M 29.859375 15.019531 C 29.859375 15.476562 29.773438 15.828125 29.609375 16.085938 C 29.445312 16.335938 29.195312 16.453125 28.851562 16.453125 C 28.503906 16.453125 28.253906 16.335938 28.089844 16.085938 C 27.925781 15.828125 27.839844 15.476562 27.839844 15.019531 C 27.839844 14.566406 27.925781 14.210938 28.085938 13.960938 C 28.25 13.710938 28.496094 13.589844 28.84375 13.589844 C 29.195312 13.589844 29.441406 13.710938 29.605469 13.960938 C 29.769531 14.210938 29.855469 14.566406 29.855469 15.019531 "/>
<path style=" stroke:none;fill-rule:evenodd;fill:rgb(100%,100%,100%);fill-opacity:1;" d="M 37.074219 16.335938 C 37.050781 16.261719 36.976562 16.289062 36.976562 16.289062 C 36.859375 16.335938 36.738281 16.375 36.609375 16.394531 C 36.480469 16.414062 36.335938 16.425781 36.179688 16.425781 C 35.800781 16.425781 35.5 16.308594 35.285156 16.089844 C 35.070312 15.863281 34.945312 15.503906 34.949219 15.019531 C 34.949219 14.574219 35.058594 14.246094 35.25 13.988281 C 35.441406 13.734375 35.730469 13.609375 36.121094 13.609375 C 36.445312 13.609375 36.691406 13.644531 36.949219 13.730469 C 36.949219 13.730469 37.011719 13.753906 37.039062 13.675781 C 37.109375 13.484375 37.160156 13.351562 37.234375 13.140625 C 37.253906 13.078125 37.203125 13.054688 37.183594 13.050781 C 37.085938 13.011719 36.84375 12.945312 36.664062 12.921875 C 36.496094 12.894531 36.300781 12.878906 36.078125 12.878906 C 35.75 12.878906 35.460938 12.933594 35.203125 13.050781 C 34.953125 13.160156 34.746094 13.316406 34.574219 13.503906 C 34.40625 13.695312 34.28125 13.925781 34.195312 14.183594 C 34.109375 14.445312 34.066406 14.726562 34.066406 15.03125 C 34.066406 15.679688 34.238281 16.203125 34.585938 16.589844 C 34.929688 16.976562 35.449219 17.171875 36.128906 17.171875 C 36.53125 17.171875 36.941406 17.089844 37.238281 16.96875 C 37.238281 16.96875 37.296875 16.945312 37.269531 16.875 L 37.078125 16.34375 Z M 37.074219 16.335938 "/>
<path style=" stroke:none;fill-rule:evenodd;fill:rgb(100%,100%,100%);fill-opacity:1;" d="M 41.078125 14.035156 C 41.015625 13.785156 40.851562 13.53125 40.738281 13.414062 C 40.570312 13.230469 40.40625 13.105469 40.234375 13.03125 C 40.019531 12.933594 39.761719 12.875 39.476562 12.875 C 39.144531 12.875 38.84375 12.929688 38.601562 13.046875 C 38.355469 13.160156 38.148438 13.316406 37.988281 13.511719 C 37.828125 13.703125 37.710938 13.933594 37.628906 14.199219 C 37.554688 14.460938 37.515625 14.746094 37.515625 15.046875 C 37.515625 15.34375 37.554688 15.636719 37.636719 15.890625 C 37.714844 16.148438 37.84375 16.375 38.019531 16.566406 C 38.195312 16.753906 38.421875 16.90625 38.683594 17.003906 C 38.949219 17.109375 39.273438 17.160156 39.644531 17.160156 C 40.410156 17.160156 40.816406 16.984375 40.980469 16.894531 C 41.011719 16.878906 41.035156 16.851562 41.003906 16.769531 L 40.828125 16.285156 C 40.804688 16.214844 40.730469 16.238281 40.730469 16.238281 C 40.539062 16.308594 40.269531 16.433594 39.640625 16.433594 C 39.230469 16.433594 38.925781 16.316406 38.734375 16.125 C 38.539062 15.929688 38.445312 15.644531 38.425781 15.246094 L 41.074219 15.246094 C 41.074219 15.246094 41.144531 15.246094 41.148438 15.179688 C 41.148438 15.148438 41.238281 14.636719 41.070312 14.039062 Z M 38.445312 14.589844 C 38.480469 14.339844 38.550781 14.128906 38.660156 13.964844 C 38.820312 13.714844 39.070312 13.578125 39.421875 13.578125 C 39.769531 13.578125 39.996094 13.714844 40.160156 13.964844 C 40.269531 14.128906 40.316406 14.34375 40.335938 14.589844 Z M 38.445312 14.589844 "/>
<path style=" stroke:none;fill-rule:evenodd;fill:rgb(100%,100%,100%);fill-opacity:1;" d="M 19.859375 14.035156 C 19.796875 13.785156 19.628906 13.53125 19.519531 13.414062 C 19.351562 13.230469 19.183594 13.105469 19.015625 13.03125 C 18.800781 12.933594 18.539062 12.875 18.253906 12.875 C 17.925781 12.875 17.625 12.929688 17.378906 13.046875 C 17.136719 13.160156 16.929688 13.316406 16.769531 13.511719 C 16.609375 13.703125 16.488281 13.933594 16.410156 14.199219 C 16.335938 14.460938 16.296875 14.746094 16.296875 15.046875 C 16.296875 15.34375 16.335938 15.636719 16.414062 15.890625 C 16.496094 16.148438 16.625 16.375 16.800781 16.566406 C 16.976562 16.753906 17.199219 16.90625 17.464844 17.003906 C 17.730469 17.109375 18.054688 17.160156 18.425781 17.160156 C 19.191406 17.160156 19.59375 16.984375 19.761719 16.894531 C 19.789062 16.878906 19.816406 16.851562 19.78125 16.769531 L 19.605469 16.285156 C 19.578125 16.214844 19.503906 16.238281 19.503906 16.238281 C 19.316406 16.308594 19.046875 16.433594 18.414062 16.433594 C 18.003906 16.433594 17.699219 16.316406 17.511719 16.125 C 17.316406 15.929688 17.21875 15.644531 17.199219 15.246094 L 19.851562 15.246094 C 19.851562 15.246094 19.921875 15.246094 19.925781 15.179688 C 19.925781 15.148438 20.015625 14.636719 19.84375 14.039062 Z M 17.226562 14.589844 C 17.261719 14.339844 17.328125 14.128906 17.441406 13.964844 C 17.605469 13.714844 17.851562 13.578125 18.199219 13.578125 C 18.550781 13.578125 18.773438 13.714844 18.945312 13.964844 C 19.054688 14.128906 19.101562 14.34375 19.121094 14.589844 Z M 17.226562 14.589844 "/>
<path style=" stroke:none;fill-rule:nonzero;fill:rgb(100%,100%,100%);fill-opacity:1;" d="M 12.550781 14.460938 C 12.441406 14.449219 12.304688 14.449219 12.136719 14.449219 C 11.910156 14.449219 11.691406 14.480469 11.480469 14.535156 C 11.273438 14.589844 11.085938 14.675781 10.925781 14.789062 C 10.765625 14.90625 10.636719 15.050781 10.539062 15.226562 C 10.445312 15.398438 10.398438 15.605469 10.398438 15.835938 C 10.398438 16.066406 10.441406 16.273438 10.519531 16.441406 C 10.601562 16.605469 10.714844 16.746094 10.863281 16.855469 C 11.011719 16.960938 11.195312 17.039062 11.40625 17.089844 C 11.613281 17.136719 11.851562 17.160156 12.105469 17.160156 C 12.375 17.160156 12.648438 17.136719 12.910156 17.09375 C 13.171875 17.050781 13.488281 16.984375 13.574219 16.964844 C 13.664062 16.945312 13.761719 16.921875 13.761719 16.921875 C 13.824219 16.90625 13.820312 16.835938 13.820312 16.835938 L 13.820312 14.410156 C 13.820312 13.878906 13.675781 13.484375 13.394531 13.238281 C 13.113281 12.996094 12.710938 12.875 12.179688 12.875 C 11.980469 12.875 11.660156 12.898438 11.46875 12.941406 C 11.46875 12.941406 10.890625 13.050781 10.65625 13.238281 C 10.65625 13.238281 10.605469 13.269531 10.628906 13.34375 L 10.820312 13.851562 C 10.84375 13.914062 10.90625 13.894531 10.90625 13.894531 C 10.90625 13.894531 10.925781 13.886719 10.949219 13.875 C 11.460938 13.601562 12.105469 13.605469 12.105469 13.605469 C 12.390625 13.605469 12.609375 13.664062 12.761719 13.773438 C 12.90625 13.886719 12.980469 14.054688 12.980469 14.40625 L 12.980469 14.515625 C 12.753906 14.480469 12.546875 14.464844 12.546875 14.464844 Z M 11.496094 16.320312 C 11.390625 16.234375 11.375 16.214844 11.339844 16.164062 C 11.289062 16.085938 11.261719 15.96875 11.261719 15.820312 C 11.261719 15.585938 11.335938 15.421875 11.496094 15.304688 C 11.496094 15.304688 11.726562 15.105469 12.265625 15.113281 C 12.644531 15.113281 12.984375 15.175781 12.984375 15.175781 L 12.984375 16.378906 C 12.984375 16.378906 12.648438 16.449219 12.269531 16.476562 C 11.730469 16.503906 11.488281 16.320312 11.496094 16.320312 Z M 11.496094 16.320312 "/>
<path style=" stroke:none;fill-rule:evenodd;fill:rgb(100%,100%,100%);fill-opacity:1;" d="M 33.921875 13.09375 C 33.941406 13.035156 33.898438 13.003906 33.878906 13 C 33.835938 12.984375 33.609375 12.933594 33.433594 12.925781 C 33.101562 12.90625 32.914062 12.960938 32.75 13.035156 C 32.585938 13.109375 32.40625 13.230469 32.300781 13.363281 L 32.300781 13.039062 C 32.300781 12.996094 32.269531 12.960938 32.226562 12.960938 L 31.546875 12.960938 C 31.5 12.960938 31.46875 12.996094 31.46875 13.039062 L 31.46875 16.996094 C 31.46875 17.039062 31.503906 17.074219 31.550781 17.074219 L 32.246094 17.074219 C 32.289062 17.074219 32.324219 17.039062 32.324219 16.996094 L 32.324219 15.019531 C 32.324219 14.753906 32.355469 14.488281 32.414062 14.324219 C 32.46875 14.160156 32.550781 14.03125 32.644531 13.933594 C 32.738281 13.839844 32.851562 13.773438 32.96875 13.738281 C 33.09375 13.699219 33.230469 13.691406 33.324219 13.691406 C 33.464844 13.691406 33.613281 13.726562 33.613281 13.726562 C 33.664062 13.730469 33.695312 13.699219 33.710938 13.65625 C 33.753906 13.535156 33.886719 13.171875 33.910156 13.101562 Z M 33.921875 13.09375 "/>
<path style=" stroke:none;fill-rule:evenodd;fill:rgb(100%,100%,100%);fill-opacity:1;" d="M 27.386719 11.265625 C 27.300781 11.238281 27.226562 11.21875 27.125 11.203125 C 27.023438 11.183594 26.898438 11.175781 26.765625 11.175781 C 26.285156 11.175781 25.910156 11.308594 25.644531 11.578125 C 25.378906 11.84375 25.199219 12.25 25.113281 12.78125 L 25.085938 12.960938 L 24.484375 12.960938 C 24.484375 12.960938 24.410156 12.960938 24.394531 13.035156 L 24.296875 13.585938 C 24.289062 13.640625 24.308594 13.671875 24.378906 13.671875 L 24.964844 13.671875 L 24.371094 16.984375 C 24.324219 17.25 24.269531 17.46875 24.210938 17.640625 C 24.148438 17.804688 24.09375 17.925781 24.023438 18.015625 C 23.953125 18.101562 23.894531 18.164062 23.785156 18.199219 C 23.695312 18.230469 23.589844 18.246094 23.476562 18.246094 C 23.410156 18.246094 23.324219 18.234375 23.261719 18.21875 C 23.195312 18.210938 23.164062 18.195312 23.113281 18.175781 C 23.113281 18.175781 23.046875 18.148438 23.019531 18.21875 C 23 18.273438 22.839844 18.703125 22.824219 18.761719 C 22.804688 18.808594 22.835938 18.855469 22.863281 18.863281 C 22.945312 18.894531 23 18.910156 23.105469 18.933594 C 23.25 18.96875 23.375 18.96875 23.496094 18.96875 C 23.738281 18.96875 23.960938 18.933594 24.144531 18.871094 C 24.328125 18.804688 24.488281 18.683594 24.636719 18.53125 C 24.789062 18.359375 24.886719 18.179688 24.980469 17.933594 C 25.070312 17.695312 25.148438 17.394531 25.214844 17.046875 L 25.808594 13.664062 L 26.683594 13.664062 C 26.683594 13.664062 26.761719 13.664062 26.773438 13.589844 L 26.875 13.039062 C 26.878906 12.984375 26.859375 12.953125 26.789062 12.953125 L 25.945312 12.953125 C 25.945312 12.953125 25.988281 12.640625 26.085938 12.355469 C 26.125 12.234375 26.203125 12.140625 26.269531 12.070312 C 26.335938 12.003906 26.410156 11.960938 26.488281 11.929688 C 26.574219 11.90625 26.671875 11.890625 26.773438 11.890625 C 26.855469 11.890625 26.933594 11.898438 26.996094 11.910156 C 27.074219 11.925781 27.109375 11.933594 27.128906 11.945312 C 27.214844 11.96875 27.230469 11.945312 27.246094 11.90625 L 27.449219 11.351562 C 27.46875 11.289062 27.421875 11.265625 27.398438 11.261719 Z M 27.386719 11.265625 "/>
<path style=" stroke:none;fill-rule:evenodd;fill:rgb(100%,100%,100%);fill-opacity:1;" d="M 15.550781 16.996094 C 15.550781 17.039062 15.519531 17.074219 15.476562 17.074219 L 14.769531 17.074219 C 14.726562 17.074219 14.695312 17.039062 14.695312 16.996094 L 14.695312 11.339844 C 14.695312 11.296875 14.726562 11.261719 14.769531 11.261719 L 15.476562 11.261719 C 15.519531 11.261719 15.550781 11.296875 15.550781 11.339844 Z M 15.550781 16.996094 "/>
</g>
</svg>
